<?xml version="1.0" encoding="UTF-8" standalone="no"?>
<!DOCTYPE svg PUBLIC "-//W3C//DTD SVG 1.1//EN"
 "http://www.w3.org/Graphics/SVG/1.1/DTD/svg11.dtd">
<!-- Generated by graphviz version 2.44.1 (20200629.0846)
 -->
<!-- Title: main Pages: 1 -->
<svg width="164pt" height="66pt"
 viewBox="0.00 0.00 164.00 66.00" xmlns="http://www.w3.org/2000/svg" xmlns:xlink="http://www.w3.org/1999/xlink">
<g id="graph0" class="graph" transform="scale(1 1) rotate(0) translate(4 62)">
<title>main</title>
<polygon fill="white" stroke="transparent" points="-4,4 -4,-62 160,-62 160,4 -4,4"/>
<!-- Node1 -->
<g id="node1" class="node">
<title>Node1</title>
<g id="a_node1"><a xlink:title=" ">
<polygon fill="#bfbfbf" stroke="black" points="0,-19.5 0,-38.5 38,-38.5 38,-19.5 0,-19.5"/>
<text text-anchor="middle" x="19" y="-26.5" font-family="Helvetica,sans-Serif" font-size="10.00">main</text>
</a>
</g>
</g>
<!-- Node2 -->
<g id="node2" class="node">
<title>Node2</title>
<g id="a_node2"><a xlink:href="../../d9/d00/factorial_8cpp.html#ae9945c15826a9c1b5c141db314b7f8b4" target="_top" xlink:title=" ">
<polygon fill="white" stroke="black" points="89.5,-38.5 89.5,-57.5 140.5,-57.5 140.5,-38.5 89.5,-38.5"/>
<text text-anchor="middle" x="115" y="-45.5" font-family="Helvetica,sans-Serif" font-size="10.00">factorial</text>
</a>
</g>
</g>
<!-- Node1&#45;&gt;Node2 -->
<g id="edge1" class="edge">
<title>Node1&#45;&gt;Node2</title>
<path fill="none" stroke="midnightblue" d="M38.12,-32.66C49.8,-35.02 65.36,-38.17 79.35,-41"/>
<polygon fill="midnightblue" stroke="midnightblue" points="78.68,-44.43 89.18,-42.98 80.07,-37.57 78.68,-44.43"/>
</g>
<!-- Node3 -->
<g id="node3" class="node">
<title>Node3</title>
<g id="a_node3"><a target="_blank" xlink:href="http://en.cppreference.com/w/cpp/string/basic_string/find.html#" xlink:title=" ">
<polygon fill="white" stroke="black" points="74,-0.5 74,-19.5 156,-19.5 156,-0.5 74,-0.5"/>
<text text-anchor="middle" x="115" y="-7.5" font-family="Helvetica,sans-Serif" font-size="10.00">std::string::find</text>
</a>
</g>
</g>
<!-- Node1&#45;&gt;Node3 -->
<g id="edge2" class="edge">
<title>Node1&#45;&gt;Node3</title>
<path fill="none" stroke="midnightblue" d="M38.12,-25.34C45.57,-23.83 54.59,-22.01 63.78,-20.15"/>
<polygon fill="midnightblue" stroke="midnightblue" points="64.64,-23.55 73.74,-18.14 63.25,-16.69 64.64,-23.55"/>
</g>
</g>
</svg>
